<?xml version="1.0" encoding="UTF-8" standalone="no"?>
<svg
   xmlns:dc="http://purl.org/dc/elements/1.1/"
   xmlns:cc="http://creativecommons.org/ns#"
   xmlns:rdf="http://www.w3.org/1999/02/22-rdf-syntax-ns#"
   xmlns:svg="http://www.w3.org/2000/svg"
   xmlns="http://www.w3.org/2000/svg"
   xmlns:sodipodi="http://sodipodi.sourceforge.net/DTD/sodipodi-0.dtd"
   xmlns:inkscape="http://www.inkscape.org/namespaces/inkscape"
   width="210mm"
   height="297mm"
   viewBox="0 0 210 297"
   version="1.1"
   id="svg8"
   inkscape:version="1.0.1 (3bc2e813f5, 2020-09-07)"
   sodipodi:docname="notifishower.svg"
   inkscape:export-filename="/tmp/notificatcher.png"
   inkscape:export-xdpi="96"
   inkscape:export-ydpi="96">
  <defs
     id="defs2" />
  <sodipodi:namedview
     id="base"
     pagecolor="#ffffff"
     bordercolor="#666666"
     borderopacity="1.0"
     inkscape:pageopacity="0"
     inkscape:pageshadow="2"
     inkscape:zoom="0.35"
     inkscape:cx="211.41885"
     inkscape:cy="646.80909"
     inkscape:document-units="mm"
     inkscape:current-layer="layer1"
     inkscape:document-rotation="0"
     showgrid="false"
     inkscape:window-width="958"
     inkscape:window-height="1177"
     inkscape:window-x="2010"
     inkscape:window-y="200"
     inkscape:window-maximized="1"
     inkscape:pagecheckerboard="true"
     inkscape:snap-text-baseline="false" />
  <metadata
     id="metadata5">
    <rdf:RDF>
      <cc:Work
         rdf:about="">
        <dc:format>image/svg+xml</dc:format>
        <dc:type
           rdf:resource="http://purl.org/dc/dcmitype/StillImage" />
        <dc:title />
      </cc:Work>
    </rdf:RDF>
  </metadata>
  <g
     inkscape:label="Layer 1"
     inkscape:groupmode="layer"
     id="layer1">
    <g
       id="g1256"
       transform="matrix(0.32620088,0,0,0.32620088,0.36392137,57.773934)"
       inkscape:export-xdpi="116.20575"
       inkscape:export-ydpi="116.20575">
      <g
         id="g1880"
         transform="translate(8.517625,24.914466)">
        <path
           style="fill:#ffffff;fill-opacity:1;stroke:#000000;stroke-width:3.26486;stroke-linecap:butt;stroke-linejoin:miter;stroke-miterlimit:4;stroke-dasharray:none;stroke-opacity:1"
           d="m 40.247233,96.718008 c 0,0 -10.731568,-17.05599 12.660033,-31.27163 23.418356,-14.23192 34.358369,3.55251 34.358369,3.55251 z"
           id="path997"
           sodipodi:nodetypes="cscc" />
        <path
           style="fill:none;stroke:#000000;stroke-width:3.67871;stroke-linecap:butt;stroke-linejoin:miter;stroke-miterlimit:4;stroke-dasharray:none;stroke-opacity:1"
           d="M 22.516781,158.11887 V 69.285268 c 0,0 -0.254996,-14.58254 14.166498,-15.20082 14.421506,-0.61828 16.586007,11.53318 16.586007,11.53318"
           id="path1159"
           sodipodi:nodetypes="ccsc" />
      </g>
      <g
         id="g865"
         transform="translate(-3.8146973e-6,0.00210844)"
         inkscape:export-xdpi="96"
         inkscape:export-ydpi="96"
         style="fill:none">
        <path
           id="rect841"
           style="opacity:1;fill:#ffffff;fill-opacity:1;stroke:#000000;stroke-width:2.58047;stroke-linecap:round;stroke-linejoin:round;stroke-miterlimit:4;stroke-dasharray:none;stroke-opacity:1"
           d="m 71.203522,127.59856 h 67.592968 v 41.80287 H 71.203522 Z" />
        <path
           style="fill:none;stroke:#000000;stroke-width:3;stroke-linecap:butt;stroke-linejoin:miter;stroke-miterlimit:4;stroke-dasharray:none;stroke-opacity:1"
           d="M 71.20352,127.59855 105,147.38711 138.79648,127.59855"
           id="path861"
           sodipodi:nodetypes="ccc" />
      </g>
      <path
         id="path957-3-27"
         style="fill:#000000;fill-opacity:1;stroke:#000000;stroke-width:3.0656;stroke-miterlimit:4;stroke-dasharray:none;stroke-opacity:1"
         d="m 72.686002,137.60156 c 1.273363,2.03155 1.293852,4.44388 0.04583,5.38803 -1.248025,0.94413 -3.291974,0.0626 -4.56531,-1.96899 -1.273314,-2.03161 -2.748543,-8.36762 -3.103857,-10.37985 1.594446,1.05457 6.349985,4.9292 7.623326,6.96081 z"
         sodipodi:nodetypes="ssscs" />
      <path
         id="path957-3-27-0"
         style="fill:#000000;fill-opacity:1;stroke:#000000;stroke-width:3.0656;stroke-miterlimit:4;stroke-dasharray:none;stroke-opacity:1"
         d="m 88.456334,125.19107 c 1.436016,2.0896 1.459122,4.57087 0.05168,5.542 -1.407442,0.97111 -3.712471,0.0644 -5.148461,-2.02526 -1.435958,-2.08967 -3.099624,-8.60674 -3.500324,-10.67647 1.798115,1.08471 7.161098,5.07006 8.597088,7.15973 z"
         sodipodi:nodetypes="ssscs" />
      <path
         id="path957-3-27-0-9"
         style="fill:#000000;fill-opacity:1;stroke:#000000;stroke-width:3.0656;stroke-miterlimit:4;stroke-dasharray:none;stroke-opacity:1"
         d="m 109.64197,122.83672 c 1.46588,2.02135 1.48947,4.42156 0.0528,5.36096 -1.43671,0.93939 -3.78968,0.0623 -5.25553,-1.95909 -1.46582,-2.0214 -3.16408,-8.32559 -3.57312,-10.32771 1.83551,1.04928 7.31002,4.90445 8.77587,6.92584 z"
         sodipodi:nodetypes="ssscs" />
      <path
         id="path957-3-27-0-3"
         style="fill:#000000;fill-opacity:1;stroke:#000000;stroke-width:3.0656;stroke-miterlimit:4;stroke-dasharray:none;stroke-opacity:1"
         d="m 117.22228,150.45181 c 1.46343,1.99066 1.48698,4.35443 0.0527,5.27957 -1.43431,0.92513 -3.78335,0.0613 -5.24675,-1.92935 -1.46337,-1.99071 -3.15879,-8.19919 -3.56714,-10.17092 1.83244,1.03335 7.2978,4.82999 8.7612,6.8207 z"
         sodipodi:nodetypes="ssscs" />
      <path
         id="path957-3-27-0-6"
         style="fill:#000000;fill-opacity:1;stroke:#000000;stroke-width:3.0656;stroke-miterlimit:4;stroke-dasharray:none;stroke-opacity:1"
         d="m 94.819987,158.32697 c 1.304953,1.96286 1.32595,4.29362 0.04696,5.20585 -1.278987,0.91221 -3.37364,0.0605 -4.67857,-1.90242 -1.3049,-1.96291 -2.816726,-8.0847 -3.180857,-10.02889 1.634006,1.01892 6.507518,4.76254 7.812449,6.72546 z"
         sodipodi:nodetypes="ssscs" />
      <path
         id="path957-3-27-0-0"
         style="fill:#000000;fill-opacity:1;stroke:#000000;stroke-width:3.0656;stroke-miterlimit:4;stroke-dasharray:none;stroke-opacity:1"
         d="m 140.72622,157.5824 c 1.42556,1.81857 1.44849,3.97799 0.0513,4.82316 -1.39719,0.84515 -3.68544,0.056 -5.11097,-1.76257 -1.4255,-1.81861 -3.07706,-7.49036 -3.47484,-9.29163 1.78502,0.94402 7.10896,4.41243 8.53449,6.23104 z"
         sodipodi:nodetypes="ssscs" />
      <path
         id="path957-3-27-0-62"
         style="fill:#000000;fill-opacity:1;stroke:#000000;stroke-width:3.0656;stroke-miterlimit:4;stroke-dasharray:none;stroke-opacity:1"
         d="m 120.29775,177.69962 c 1.4671,1.83525 1.49071,4.01448 0.0528,4.8674 -1.43791,0.85291 -3.79283,0.0565 -5.25991,-1.77873 -1.46704,-1.8353 -3.16672,-7.55909 -3.57609,-9.37688 1.83704,0.95267 7.31611,4.45291 8.78319,6.28821 z"
         sodipodi:nodetypes="ssscs" />
      <path
         id="path957-3-27-0-61"
         style="fill:#000000;fill-opacity:1;stroke:#000000;stroke-width:3.0656;stroke-miterlimit:4;stroke-dasharray:none;stroke-opacity:1"
         d="m 88.54045,177.47961 c 1.478144,1.96583 1.501927,4.30013 0.0532,5.21374 -1.448732,0.91359 -3.821383,0.0605 -5.299501,-1.9053 -1.478083,-1.96589 -3.190555,-8.09695 -3.603013,-10.04409 1.850867,1.02047 7.371183,4.76976 8.849301,6.73565 z"
         sodipodi:nodetypes="ssscs" />
    </g>
    <text
       xml:space="preserve"
       style="font-style:normal;font-variant:normal;font-weight:normal;font-stretch:normal;font-size:25.4px;line-height:1.25;font-family:Urbanist;-inkscape-font-specification:'Urbanist, Normal';font-variant-ligatures:normal;font-variant-caps:normal;font-variant-numeric:normal;font-variant-east-asian:normal;letter-spacing:0px;word-spacing:0px;fill:#000000;fill-opacity:1;stroke:none;stroke-width:0.264583"
       x="54.634872"
       y="114.71603"
       id="text1260"
       inkscape:export-xdpi="116.20575"
       inkscape:export-ydpi="116.20575"><tspan
         sodipodi:role="line"
         id="tspan1258"
         x="54.634872"
         y="114.71603"
         style="font-style:normal;font-variant:normal;font-weight:normal;font-stretch:normal;font-size:25.4px;font-family:Urbanist;-inkscape-font-specification:'Urbanist, Normal';font-variant-ligatures:normal;font-variant-caps:normal;font-variant-numeric:normal;font-variant-east-asian:normal;stroke-width:0.264583">Notifishower</tspan></text>
  </g>
</svg>
